<?xml version="1.0" encoding="utf-8"?>
<!-- Generator: Adobe Illustrator 16.0.0, SVG Export Plug-In . SVG Version: 6.00 Build 0)  -->
<!DOCTYPE svg PUBLIC "-//W3C//DTD SVG 1.1//EN" "http://www.w3.org/Graphics/SVG/1.1/DTD/svg11.dtd">
<svg version="1.1" xmlns="http://www.w3.org/2000/svg" xmlns:xlink="http://www.w3.org/1999/xlink" x="0px" y="0px" width="60px"
	 height="60px" viewBox="0 0 60 60" enable-background="new 0 0 60 60" xml:space="preserve">
<g id="Layer_1">
</g>
<g id="txt">
	<linearGradient id="SVGID_2_" gradientUnits="userSpaceOnUse" x1="30" y1="58.4287" x2="30" y2="6.3545">
		<stop  offset="0" style="stop-color:#477256"/>
		<stop  offset="1" style="stop-color:#135D6B"/>
	</linearGradient>
	<rect fill="url(#SVGID_2_)" width="60" height="60.001"/>
	<g>
		<path fill="#FFFFFF" d="M47.678,49.464c0,1.09-0.877,1.973-1.959,1.973H14.283c-1.084,0-1.961-0.883-1.961-1.973V21.993
			c0-1.09,0.877-1.973,1.961-1.973h31.436c1.082,0,1.959,0.883,1.959,1.973V49.464z"/>
		<g>
			<g>
				<path fill="none" stroke="#293F54" stroke-width="0.5669" stroke-miterlimit="10" d="M45.875,48.729c0,0.552-0.447,1-1,1H15.313
					c-0.553,0-1-0.448-1-1v-26c0-0.553,0.447-1,1-1h29.563c0.553,0,1,0.447,1,1V48.729z"/>
				
					<line fill="none" stroke="#293F54" stroke-width="0.5669" stroke-miterlimit="10" x1="14.125" y1="28.666" x2="45.813" y2="28.666"/>
				<circle fill="#00B1CC" cx="16.875" cy="25.291" r="0.813"/>
				<circle fill="#00B1CC" cx="20.875" cy="25.291" r="0.813"/>
				<circle fill="#00B1CC" cx="24.875" cy="25.291" r="0.813"/>
				<circle fill="#293F54" cx="30.25" cy="25.291" r="0.5"/>
				<circle fill="#293F54" cx="32.775" cy="25.291" r="0.5"/>
				<circle fill="#293F54" cx="35.301" cy="25.291" r="0.5"/>
				<circle fill="#293F54" cx="37.826" cy="25.291" r="0.5"/>
				<circle fill="#293F54" cx="40.35" cy="25.291" r="0.5"/>
				<circle fill="#293F54" cx="42.875" cy="25.291" r="0.5"/>
			</g>
			<g>
				<path fill="#293F54" d="M22.23,34.172h-0.674v-0.397h1.834v0.397h-0.674v1.707H22.23V34.172z"/>
				<path fill="#293F54" d="M23.486,34.827c0-0.626,0.486-1.089,1.15-1.089c0.662,0,1.152,0.46,1.152,1.089
					c0,0.628-0.49,1.088-1.152,1.088C23.973,35.915,23.486,35.452,23.486,34.827z M25.295,34.827c0-0.4-0.282-0.674-0.658-0.674
					c-0.375,0-0.658,0.273-0.658,0.674c0,0.399,0.283,0.673,0.658,0.673C25.013,35.5,25.295,35.227,25.295,34.827z"/>
				<path fill="#293F54" d="M27.572,34.794h0.444v0.854c-0.231,0.175-0.55,0.268-0.851,0.268c-0.662,0-1.148-0.454-1.148-1.088
					c0-0.635,0.486-1.089,1.157-1.089c0.37,0,0.677,0.127,0.881,0.364l-0.313,0.288c-0.153-0.162-0.331-0.237-0.544-0.237
					c-0.409,0-0.688,0.273-0.688,0.674c0,0.394,0.279,0.673,0.683,0.673c0.132,0,0.255-0.023,0.379-0.09V34.794z"/>
				<path fill="#293F54" d="M30.092,35.488v0.391h-1.629v-2.104h1.59v0.391h-1.105v0.457h0.977v0.379h-0.977v0.487H30.092z"/>
				<path fill="#293F54" d="M30.912,34.172h-0.674v-0.397h1.834v0.397h-0.674v1.707h-0.486V34.172z"/>
				<path fill="#293F54" d="M34.26,33.774v2.104h-0.487v-0.862h-0.956v0.862H32.33v-2.104h0.486v0.83h0.956v-0.83H34.26z"/>
				<path fill="#293F54" d="M36.383,35.488v0.391h-1.629v-2.104h1.59v0.391h-1.106v0.457h0.978v0.379h-0.978v0.487H36.383z"/>
				<path fill="#293F54" d="M38.107,35.879l-0.406-0.586h-0.024h-0.424v0.586h-0.487v-2.104h0.911c0.563,0,0.914,0.292,0.914,0.764
					c0,0.315-0.159,0.547-0.433,0.664l0.472,0.677H38.107z M37.65,34.172h-0.397v0.733h0.397c0.297,0,0.447-0.139,0.447-0.367
					C38.098,34.307,37.947,34.172,37.65,34.172z"/>
			</g>
			<path fill="#00B1CC" d="M14.313,38.494"/>
			
				<path fill="none" stroke="#293F54" stroke-width="0.3844" stroke-linecap="round" stroke-linejoin="round" stroke-miterlimit="10" d="
				M26.982,43.963c0,0.671-0.543,1.213-1.214,1.213h-5.323c-0.67,0-1.213-0.542-1.213-1.213V38.64c0-0.67,0.543-1.213,1.213-1.213
				h5.323c0.671,0,1.214,0.543,1.214,1.213V43.963z"/>
			
				<path fill="none" stroke="#293F54" stroke-width="0.3844" stroke-linecap="round" stroke-linejoin="round" stroke-miterlimit="10" d="
				M40.224,43.963c0,0.671-0.543,1.213-1.214,1.213h-5.322c-0.67,0-1.213-0.542-1.213-1.213V38.64c0-0.67,0.543-1.213,1.213-1.213
				h5.322c0.671,0,1.214,0.543,1.214,1.213V43.963z"/>
			<polygon fill="#00B1CC" points="23.314,38.893 24.097,40.478 25.847,40.732 24.581,41.968 24.88,43.71 23.314,42.888 
				21.749,43.71 22.048,41.968 20.782,40.732 22.532,40.478 			"/>
			<path fill="#FFC500" d="M34.193,43.392c0.056-0.164,2.038-4.18,2.038-4.18l2.271,4.18H34.193z"/>
			<g>
				<path fill="#293F54" d="M29.989,39.806l0.001,1.191h1.142v0.514L29.99,41.51v1.202l-0.534-0.002l-0.001-1.201l-1.142-0.002
					l0.001-0.513l1.14,0.003l-0.001-1.191H29.989z"/>
			</g>
			<g>
				<path fill="#293F54" d="M19.726,31.6v0.278h-0.658v0.307h0.626v0.278h-0.626v0.557h-0.316V31.6H19.726z"/>
				<path fill="#293F54" d="M21.145,32.071c0,0.228-0.09,0.374-0.27,0.44l0.359,0.508h-0.391l-0.314-0.453h-0.219v0.453h-0.316V31.6
					h0.537c0.221,0,0.379,0.038,0.473,0.112S21.145,31.906,21.145,32.071z M20.764,32.239c0.039-0.035,0.059-0.091,0.059-0.167
					s-0.021-0.129-0.061-0.157c-0.041-0.028-0.112-0.043-0.214-0.043h-0.237v0.421h0.231C20.65,32.293,20.724,32.275,20.764,32.239z
					"/>
				<path fill="#293F54" d="M22.494,31.6v0.283h-0.707v0.292h0.635v0.271h-0.635v0.294h0.729v0.28h-1.045V31.6H22.494z"/>
				<path fill="#293F54" d="M24.207,32.301c0,0.147-0.037,0.28-0.112,0.397c-0.075,0.118-0.177,0.206-0.304,0.265
					c0.012,0.021,0.031,0.037,0.059,0.052c0.025,0.014,0.053,0.021,0.082,0.021c0.028,0,0.056-0.005,0.083-0.014
					c0.026-0.009,0.049-0.02,0.065-0.031c0.035-0.028,0.06-0.057,0.074-0.083l0.165,0.196c-0.116,0.123-0.263,0.186-0.437,0.186
					c-0.082,0-0.161-0.022-0.24-0.067c-0.078-0.045-0.139-0.107-0.18-0.188c-0.211,0-0.387-0.07-0.531-0.211
					c-0.143-0.14-0.215-0.314-0.215-0.522c0-0.209,0.072-0.383,0.215-0.523c0.145-0.14,0.32-0.21,0.531-0.21
					c0.209,0,0.386,0.07,0.529,0.21C24.136,31.918,24.207,32.092,24.207,32.301z M23.885,32.302c0-0.127-0.041-0.234-0.122-0.324
					c-0.081-0.089-0.181-0.134-0.3-0.134c-0.118,0-0.218,0.045-0.299,0.134c-0.082,0.09-0.122,0.197-0.122,0.324
					s0.04,0.234,0.122,0.323c0.081,0.088,0.181,0.133,0.299,0.133c0.119,0,0.219-0.045,0.3-0.133
					C23.844,32.536,23.885,32.429,23.885,32.302z"/>
				<path fill="#293F54" d="M24.854,32.653c0.053,0.065,0.123,0.099,0.213,0.099s0.16-0.033,0.212-0.099
					c0.052-0.066,0.078-0.155,0.078-0.27V31.6h0.317v0.795c0,0.205-0.057,0.363-0.171,0.474s-0.259,0.166-0.437,0.166
					s-0.323-0.056-0.438-0.167c-0.115-0.111-0.172-0.269-0.172-0.473V31.6h0.316v0.784C24.773,32.498,24.801,32.587,24.854,32.653z"
					/>
				<path fill="#293F54" d="M27.025,31.6v0.283h-0.707v0.292h0.637v0.271h-0.637v0.294h0.73v0.28h-1.047V31.6H27.025z"/>
				<path fill="#293F54" d="M28.323,31.6h0.317v1.42h-0.317l-0.677-0.89v0.89H27.33V31.6h0.297l0.696,0.914V31.6z"/>
				<path fill="#293F54" d="M29.591,31.874v1.146h-0.317v-1.146h-0.402V31.6h1.121v0.274H29.591z"/>
				<path fill="#293F54" d="M30.225,33.02V31.6h0.316v1.138h0.605v0.282H30.225z"/>
				<path fill="#293F54" d="M31.865,33.02h-0.316v-0.561L31.057,31.6H31.4l0.307,0.528l0.307-0.528h0.343l-0.491,0.859V33.02z"/>
				<path fill="#293F54" d="M33.666,33.02h-0.621V31.6h0.553c0.096,0,0.179,0.012,0.248,0.035c0.07,0.022,0.123,0.054,0.158,0.093
					c0.063,0.073,0.095,0.156,0.095,0.248c0,0.111-0.036,0.193-0.107,0.248c-0.024,0.019-0.042,0.03-0.051,0.035
					c-0.01,0.005-0.026,0.013-0.051,0.023c0.088,0.02,0.157,0.059,0.21,0.119s0.078,0.135,0.078,0.225
					c0,0.099-0.033,0.186-0.102,0.262C33.998,32.976,33.861,33.02,33.666,33.02z M33.361,32.175h0.15
					c0.088,0,0.153-0.01,0.196-0.028c0.042-0.02,0.063-0.061,0.063-0.123s-0.02-0.104-0.059-0.125s-0.105-0.03-0.199-0.03h-0.152
					V32.175z M33.361,32.752h0.217c0.092,0,0.16-0.012,0.205-0.034s0.068-0.066,0.068-0.132s-0.025-0.109-0.072-0.13
					c-0.049-0.021-0.125-0.031-0.23-0.031h-0.188V32.752z"/>
				<path fill="#293F54" d="M35.639,32.823c-0.145,0.141-0.32,0.211-0.53,0.211s-0.387-0.07-0.53-0.211
					c-0.144-0.14-0.215-0.314-0.215-0.522c0-0.209,0.071-0.383,0.215-0.523c0.144-0.14,0.32-0.21,0.53-0.21s0.386,0.07,0.53,0.21
					c0.143,0.141,0.215,0.314,0.215,0.523C35.854,32.509,35.781,32.684,35.639,32.823z M35.531,32.302
					c0-0.127-0.041-0.234-0.123-0.324c-0.08-0.089-0.181-0.134-0.299-0.134c-0.119,0-0.219,0.045-0.3,0.134
					c-0.081,0.09-0.122,0.197-0.122,0.324s0.041,0.234,0.122,0.323c0.081,0.088,0.181,0.133,0.3,0.133
					c0.118,0,0.219-0.045,0.299-0.133C35.49,32.536,35.531,32.429,35.531,32.302z"/>
				<path fill="#293F54" d="M36.497,32.653c0.053,0.065,0.124,0.099,0.214,0.099c0.089,0,0.16-0.033,0.211-0.099
					C36.975,32.587,37,32.498,37,32.384V31.6h0.317v0.795c0,0.205-0.057,0.363-0.171,0.474c-0.113,0.11-0.259,0.166-0.436,0.166
					c-0.178,0-0.324-0.056-0.438-0.167c-0.115-0.111-0.172-0.269-0.172-0.473V31.6h0.316v0.784
					C36.418,32.498,36.444,32.587,36.497,32.653z"/>
				<path fill="#293F54" d="M38.568,32.297h0.318V32.8c-0.141,0.157-0.336,0.236-0.584,0.236c-0.209,0-0.384-0.069-0.525-0.207
					c-0.142-0.139-0.213-0.313-0.213-0.523c0-0.21,0.072-0.386,0.217-0.527c0.145-0.141,0.318-0.211,0.521-0.211
					c0.204,0,0.381,0.067,0.531,0.201l-0.164,0.237c-0.064-0.055-0.122-0.094-0.176-0.114c-0.054-0.021-0.111-0.031-0.174-0.031
					c-0.12,0-0.222,0.041-0.305,0.122c-0.082,0.082-0.123,0.19-0.123,0.324s0.039,0.241,0.118,0.322
					c0.079,0.08,0.174,0.12,0.283,0.12c0.11,0,0.201-0.021,0.274-0.063V32.297z"/>
				<path fill="#293F54" d="M40.051,31.6h0.316v1.42h-0.316v-0.559h-0.564v0.559H39.17V31.6h0.316v0.594h0.564V31.6z"/>
				<path fill="#293F54" d="M41.318,31.874v1.146h-0.317v-1.146h-0.402V31.6h1.121v0.274H41.318z"/>
			</g>
		</g>
	</g>
	<path fill="#98C020" d="M29.011,7.008c0.309,0,0.575-0.107,0.8-0.324c0.199-0.191,0.304-0.391,0.313-0.6
		c0.009-0.141-0.046-0.281-0.163-0.418c-0.116-0.137-0.263-0.205-0.437-0.205c-0.3,0-0.573,0.1-0.819,0.299
		c-0.244,0.199-0.372,0.408-0.38,0.625C28.308,6.801,28.536,7.008,29.011,7.008z"/>
	<path fill="#FFFFFF" d="M37.515,11.229l-0.14-0.186c-0.095,0.109-0.214,0.225-0.361,0.348c-0.179,0.148-0.302,0.223-0.37,0.223
		c-0.094,0-0.154-0.02-0.178-0.061c-0.024-0.039-0.035-0.109-0.029-0.213c0-0.039,0.03-0.191,0.092-0.455s0.095-0.465,0.101-0.602
		c0.004-0.203-0.033-0.359-0.111-0.467C36.414,9.684,36.241,9.627,36,9.646c-0.281,0.025-0.574,0.135-0.88,0.332
		c-0.128,0.084-0.251,0.184-0.37,0.297c0.213-0.891,0.321-1.498,0.326-1.824c0.005-0.484-0.194-0.734-0.599-0.748
		c-0.458-0.016-0.794,0.242-1.006,0.775c0.089-0.039,0.174-0.059,0.251-0.059c0.064,0,0.131,0.039,0.2,0.117
		c0.103,0.125,0.146,0.314,0.125,0.57c-0.014,0.189-0.059,0.592-0.134,1.207c-0.016,0.154-0.032,0.297-0.046,0.428
		c-0.029,0.021-0.057,0.043-0.088,0.063c-0.374,0.25-0.716,0.375-1.022,0.375c-0.408,0-0.608-0.154-0.6-0.461
		c0.017-0.535,0.107-1.234,0.274-2.1h0.887c0.067,0,0.101-0.029,0.101-0.088l0.11-0.535c0.018-0.084-0.019-0.125-0.11-0.125h-0.837
		c0.199-0.949,0.337-1.607,0.411-1.975c0.017-0.066-0.033-0.1-0.148-0.1c-0.219,0-0.501,0.092-0.85,0.275
		c-0.375,0.199-0.58,0.4-0.612,0.6l-0.2,1.199h-0.513c-0.066,0-0.104,0.029-0.112,0.086l-0.112,0.537
		c-0.017,0.084,0.021,0.125,0.112,0.125h0.514c-0.126,0.723-0.222,1.32-0.285,1.797c-0.124,0.123-0.266,0.254-0.428,0.389
		c-0.299,0.25-0.507,0.375-0.623,0.375c-0.268,0-0.396-0.18-0.389-0.537c0.125-0.783,0.242-1.428,0.35-1.936
		c0.033-0.299-0.015-0.543-0.144-0.73s-0.33-0.27-0.604-0.244c-0.176,0.018-0.441,0.184-0.8,0.5c-0.266,0.242-0.533,0.482-0.8,0.725
		l0.288,0.338c0.232-0.176,0.374-0.264,0.424-0.264c0.15,0,0.225,0.109,0.225,0.324c0,0.043-0.081,0.352-0.243,0.924
		c-0.041,0.146-0.077,0.283-0.108,0.41c-0.375,0.26-0.856,0.531-1.446,0.814c0.301-0.99,0.466-1.914,0.499-2.771
		c0.026-0.691-0.282-1.045-0.923-1.063c-0.774-0.023-1.282,0.408-1.523,1.299c0.135-0.057,0.274-0.086,0.418-0.086
		c0.118,0,0.215,0.047,0.292,0.143c0.075,0.096,0.109,0.207,0.102,0.33c-0.009,0.326-0.175,0.674-0.497,1.043
		c-0.323,0.371-0.61,0.557-0.862,0.557c-0.176,0-0.261-0.15-0.252-0.449c0.009-0.158,0.063-0.479,0.162-0.963
		c0.091-0.457,0.137-0.766,0.137-0.924c0-0.273-0.07-0.496-0.211-0.668c-0.142-0.17-0.347-0.244-0.612-0.219
		c-0.184,0.018-0.454,0.184-0.812,0.5c-0.267,0.242-0.532,0.482-0.8,0.725l0.287,0.338c0.233-0.176,0.376-0.264,0.425-0.264
		c0.158,0,0.233,0.109,0.225,0.324c0,0.018-0.074,0.279-0.225,0.787c-0.149,0.508-0.228,0.887-0.236,1.137
		c-0.017,0.342,0.046,0.604,0.188,0.787c0.174,0.225,0.467,0.32,0.876,0.287c0.485-0.033,0.97-0.213,1.455-0.537
		c0.201-0.133,0.393-0.287,0.576-0.463c-0.066,0.334-0.146,0.617-0.236,0.85c-0.9,0.408-1.549,0.758-1.948,1.049
		c-0.566,0.408-0.87,0.846-0.911,1.311c-0.076,0.808,0.332,1.212,1.223,1.212c0.6,0,1.179-0.365,1.736-1.099
		c0.475-0.623,0.887-1.457,1.236-2.498c0.605-0.299,1.116-0.594,1.535-0.881c-0.014,0.096-0.022,0.182-0.024,0.258
		c-0.009,0.266,0.057,0.482,0.193,0.648c0.138,0.168,0.335,0.25,0.594,0.25c0.557,0,1.116-0.242,1.674-0.725
		c0.162-0.143,0.31-0.291,0.444-0.447c-0.007,0.107-0.01,0.199-0.009,0.273c0.009,0.6,0.358,0.898,1.05,0.898
		c0.565,0,1.174-0.242,1.823-0.725c0.089-0.064,0.17-0.129,0.248-0.193c0,0.002,0,0.006,0,0.01c-0.01,0.236,0.045,0.424,0.162,0.563
		c0.148,0.168,0.389,0.246,0.725,0.238c-0.044-0.105-0.062-0.297-0.051-0.578c0.009-0.32,0.121-0.623,0.334-0.908
		c0.193-0.262,0.373-0.393,0.537-0.393c0.108,0,0.158,0.092,0.148,0.273c-0.006,0.119-0.034,0.289-0.086,0.514
		c-0.051,0.225-0.079,0.418-0.085,0.58c-0.005,0.158,0.034,0.287,0.115,0.385c0.081,0.1,0.197,0.148,0.351,0.148
		c0.33,0,0.66-0.143,0.991-0.43C37.188,11.727,37.377,11.488,37.515,11.229z M23.642,14.039c-0.134,0-0.195-0.059-0.187-0.174
		c0.016-0.217,0.39-0.504,1.122-0.863C24.195,13.693,23.884,14.039,23.642,14.039z"/>
</g>
</svg>
